<?xml version="1.0" encoding="UTF-8"?>
<svg version="1.1" xmlns="http://www.w3.org/2000/svg" width="1536" height="1024">
<path d="M0 0 C0.85464844 0.75023437 1.70929688 1.50046875 2.58984375 2.2734375 C3.028125 1.90992188 3.46640625 1.54640625 3.91796875 1.171875 C13.40638829 -6.34943317 24.40793894 -11.83872876 36.58984375 -12.7265625 C37.45351563 -12.79230469 38.3171875 -12.85804688 39.20703125 -12.92578125 C54.07336396 -13.50995964 67.91822873 -9.03816884 79.3046875 0.5625 C91.72101614 12.32533766 99.95381146 28.60083063 100.703125 45.88671875 C100.71305914 48.01593668 100.65849324 50.14530336 100.58984375 52.2734375 C102.02457031 51.79003906 102.02457031 51.79003906 103.48828125 51.296875 C118.12558455 47.14314503 133.95314372 50.45359822 146.96484375 57.5859375 C160.48516253 65.96497717 168.310124 79.27765486 172.40234375 94.4609375 C173.50203198 99.19948173 173.86952662 103.42560107 173.58984375 108.2734375 C176.88984375 108.2734375 180.18984375 108.2734375 183.58984375 108.2734375 C183.80382812 107.57992187 184.0178125 106.88640625 184.23828125 106.171875 C185.95849187 102.4828684 188.43873896 99.81179175 191.21484375 96.8984375 C191.75826416 96.32262939 192.30168457 95.74682129 192.86157227 95.15356445 C211.15200176 75.95715788 233.38395866 66.69515002 259.75317383 65.921875 C282.05249793 65.70403282 303.99565824 71.12346826 320.83984375 86.30078125 C322.939596 88.36991212 324.98436506 90.42288092 326.69604492 92.82739258 C329.60746147 95.05045823 332.72801059 94.84062157 336.2578125 94.91796875 C337.01145584 94.93744064 337.76509918 94.95691254 338.5415802 94.97697449 C340.13767339 95.00968119 341.73397006 95.03348948 343.33032227 95.04907227 C345.75463293 95.08559535 348.1697389 95.19139515 350.59179688 95.29882812 C358.97220929 95.63961422 358.97220929 95.63961422 366.31103516 92.1105957 C368.4199812 89.51414457 368.4199812 89.51414457 369.9777832 86.76806641 C374.86726873 79.20169307 385.93415763 76.02674082 394.33984375 74.0859375 C409.00654511 71.41313894 424.78172216 73.65865782 437.27734375 82.0859375 C440.21397498 84.3448846 442.97007068 86.65366443 445.58984375 89.2734375 C446.36328125 88.005 446.36328125 88.005 447.15234375 86.7109375 C454.28812736 76.26473882 464.85679193 70.12945895 477.23779297 67.63305664 C481.23378693 67.02208517 485.17700158 66.8908931 489.21484375 66.8984375 C490.07859619 66.89932373 490.94234863 66.90020996 491.83227539 66.90112305 C500.49952542 67.05876761 509.8087577 68.2194398 517.25 72.97265625 C519.44562557 74.48169888 519.44562557 74.48169888 521.640625 74.08203125 C524.44002376 72.92075761 527.15954177 71.63738819 529.8828125 70.30859375 C536.95566587 67.60396728 543.93941147 66.91084539 551.46484375 66.9609375 C552.34253418 66.96585205 553.22022461 66.9707666 554.12451172 66.97583008 C567.53141399 67.21785433 580.73906813 71.87135145 590.58984375 81.2734375 C594.62176455 86.148324 598.11175935 91.0326367 599.58984375 97.2734375 C600.28207031 97.11230469 600.97429688 96.95117188 601.6875 96.78515625 C613.62145914 94.68105309 626.84699231 96.31911714 638.27734375 100.0859375 C643.46786214 101.61569439 646.87595278 100.76733525 651.9375 99.11328125 C661.8985392 95.95919667 673.26420608 97.17802606 683.58984375 97.2734375 C683.58984375 97.9334375 683.58984375 98.5934375 683.58984375 99.2734375 C685.42110107 99.49929257 687.25507463 99.70315267 689.08984375 99.8984375 C690.11078125 100.01445312 691.13171875 100.13046875 692.18359375 100.25 C695.51599573 100.27292937 698.15874951 99.62966995 701.34960938 98.74951172 C705.71762542 97.82126071 710.14314819 97.98708849 714.58984375 98.0234375 C715.53601562 98.01570313 716.4821875 98.00796875 717.45703125 98 C723.2081043 98.01593095 728.05333954 98.76789688 733.58984375 100.2734375 C736.63842602 100.20872618 739.57868518 99.74031699 742.58984375 99.2734375 C758.44161268 97.09320455 774.16766889 95.57606182 789.27734375 102.2109375 C794.33473642 104.10745975 798.60524261 102.13592876 803.4765625 100.3515625 C818.80133875 95.04461364 840.78478236 96.34022019 855.41503906 103.11914062 C872.52619733 111.53622213 883.24942887 124.08864339 889.5625 142.0390625 C892.12345799 150.75823109 892.01348311 159.29953609 891.58984375 168.2734375 C891.5419873 169.30533203 891.49413086 170.33722656 891.44482422 171.40039062 C891.27033467 174.81859607 891.0613912 178.23297481 890.83984375 181.6484375 C890.77837158 182.72947754 890.71689941 183.81051758 890.65356445 184.92431641 C889.70092511 197.80321061 885.08132194 210.70686291 875.27734375 219.5859375 C874.07188104 220.51342211 872.84074362 221.40821061 871.58984375 222.2734375 C870.49736328 223.04107422 870.49736328 223.04107422 869.3828125 223.82421875 C855.42006396 232.91466731 840.36126059 233.4285915 824.24780273 233.38696289 C822.70954897 233.3866804 821.17129507 233.38683996 819.63304138 233.3874054 C815.48080223 233.38769095 811.32859229 233.38183343 807.17635989 233.37483144 C802.82819185 233.36855752 798.48002306 233.36799091 794.1318512 233.36680603 C785.9085569 233.36370459 777.68527598 233.35550726 769.46198756 233.34545654 C760.09557437 233.33425847 750.72916052 233.32877566 741.3627423 233.32376111 C722.10510188 233.31332361 702.84747389 233.29574724 683.58984375 233.2734375 C683.25984375 233.9334375 682.92984375 234.5934375 682.58984375 235.2734375 C682.58984375 234.6134375 682.58984375 233.9534375 682.58984375 233.2734375 C681.30009895 233.29556053 681.30009895 233.29556053 679.98429871 233.31813049 C671.79342009 233.45744987 663.60246598 233.59034007 655.41137218 233.7164011 C651.20248707 233.78139216 646.99366738 233.84867951 642.78491211 233.92163086 C606.98889899 234.53898673 606.98889899 234.53898673 591.58984375 233.2734375 C591.58984375 233.9334375 591.58984375 234.5934375 591.58984375 235.2734375 C590.59984375 234.9434375 589.60984375 234.6134375 588.58984375 234.2734375 C586.10969591 234.17420598 583.65757082 234.13122807 581.17726612 234.1347723 C580.41234806 234.13193008 579.64742999 234.12908786 578.85933259 234.12615952 C576.27533639 234.11778377 573.69138486 234.11654206 571.1073761 234.11521912 C569.24450088 234.11065572 567.38162669 234.10565603 565.51875371 234.10025555 C560.38342422 234.08663965 555.24810136 234.07924612 550.11275852 234.07282889 C544.58105428 234.06484007 539.04936394 234.05113709 533.51766968 234.03811646 C523.92821499 234.01633211 514.33875891 233.9981948 504.74929237 233.98251152 C490.88441138 233.9598307 477.01954575 233.93168541 463.15467777 233.90219224 C440.66163761 233.85449438 418.16859116 233.81122764 395.67553711 233.77075195 C373.82136547 233.7314154 351.96719939 233.68999611 330.11303711 233.64575195 C329.43961247 233.64438942 328.76618783 233.64302689 328.07235639 233.64162308 C321.3096618 233.62793792 314.54696731 233.61421036 307.78427287 233.60045173 C251.0528082 233.4850362 194.32133162 233.37677763 137.58984375 233.2734375 C137.44361572 234.53115967 137.2973877 235.78888184 137.14672852 237.0847168 C135.60520028 250.34355826 126.67531563 262.86562632 116.58984375 271.2734375 C108.51018232 277.54151565 100.3524366 281.33030289 90.58984375 284.2734375 C89.44515625 284.62535156 89.44515625 284.62535156 88.27734375 284.984375 C68.04844374 290.61257702 46.6443596 286.57866881 26.90234375 281.1484375 C8.22998496 276.08174432 -7.16020371 277.56181099 -25.47265625 282.8359375 C-48.05816293 289.32152686 -74.05504449 290.45944842 -95.41015625 279.2734375 C-112.44562982 269.43119803 -123.07144077 256.27175704 -128.41015625 237.2734375 C-129.34574422 232.95121597 -129.98933589 228.67451708 -130.41015625 224.2734375 C-130.48234375 223.51933594 -130.55453125 222.76523437 -130.62890625 221.98828125 C-131.12888396 210.84294489 -127.58776982 199.47360058 -123.41015625 189.2734375 C-123.90902344 188.91894531 -124.40789062 188.56445312 -124.921875 188.19921875 C-145.80622443 172.71405481 -158.45096801 153.04655192 -164.00390625 127.546875 C-166.3761144 108.43235163 -164.8649266 88.58392716 -153.18945312 72.60253906 C-144.43721592 61.55993511 -133.45885579 53.79460953 -119.41015625 51.2734375 C-111.72281249 50.64525465 -103.99191259 50.81403839 -96.41015625 52.2734375 C-96.31516846 51.66983398 -96.22018066 51.06623047 -96.12231445 50.44433594 C-92.92660861 30.54561447 -87.95231613 10.43048553 -70.84765625 -2.2890625 C-49.46559727 -16.58594217 -20.21404165 -16.7986677 0 0 Z M-68.09765625 16.0234375 C-78.3792379 28.34259911 -80.59456858 43.29961256 -80.53515625 58.8359375 C-80.53902344 59.85107422 -80.54289062 60.86621094 -80.546875 61.91210938 C-80.54047847 66.80865244 -80.44641973 71.4622142 -79.41015625 76.2734375 C-80.51810547 75.56767578 -80.51810547 75.56767578 -81.6484375 74.84765625 C-93.64010726 67.48809273 -104.43707237 64.97195272 -118.41015625 66.2734375 C-127.52146294 68.56005887 -135.57419109 73.92930157 -141.41015625 81.2734375 C-150.64689712 96.8300537 -152.14797865 114.86493416 -147.84765625 132.3984375 C-144.13667481 144.02617934 -138.63965231 154.23115171 -130.41015625 163.2734375 C-129.58644531 164.18996094 -128.76273437 165.10648438 -127.9140625 166.05078125 C-120.91543279 173.45571747 -111.92971733 181.83718746 -101.41015625 183.2734375 C-102.0134375 184.15644531 -102.61671875 185.03945313 -103.23828125 185.94921875 C-113.05689698 200.58903707 -117.34447977 214.0240799 -114.78515625 231.8359375 C-111.99397589 245.07960707 -103.6139147 256.22045904 -92.64453125 263.96484375 C-88.13680501 266.60485824 -83.3225518 268.52399083 -78.41015625 270.2734375 C-77.39824219 270.64210938 -76.38632812 271.01078125 -75.34375 271.390625 C-61.16429163 275.2872108 -43.38638007 273.13970333 -29.46972656 268.8984375 C-26.37222179 267.9584645 -23.25000583 267.11131558 -20.12915039 266.25268555 C-18.57407476 265.8218332 -17.02099227 265.38369094 -15.47045898 264.93676758 C4.19344274 259.29376982 22.02248103 264.16693048 41.23828125 269.5625 C60.36120868 274.80749052 82.57055715 274.57219969 100.2890625 264.8046875 C112.09891063 256.94482253 120.58661079 246.25206607 123.58984375 232.2734375 C123.69134303 229.97987857 123.7241695 227.68222959 123.6875 225.38671875 C123.67340088 224.23598877 123.65930176 223.08525879 123.64477539 221.8996582 C123.62664795 221.03300537 123.60852051 220.16635254 123.58984375 219.2734375 C124.20836916 219.27390544 124.82689456 219.27437338 125.46416316 219.27485551 C192.80767687 219.32569729 260.15119277 219.37281318 327.49472046 219.40046692 C329.00376477 219.40108818 329.00376477 219.40108818 330.54329483 219.40172198 C352.40728045 219.41070081 374.27126627 219.41901134 396.13525239 219.42663349 C406.85742091 219.43037548 417.57958938 219.43426515 428.30175781 219.43823242 C429.90223066 219.43882084 429.90223066 219.43882084 431.53503629 219.43942114 C466.11598099 219.45220407 500.69691098 219.47473719 535.27784677 219.50232916 C570.81567876 219.53063312 606.3535026 219.54909527 641.89134567 219.55518247 C646.91137295 219.55604693 651.93140021 219.55702384 656.95142746 219.55806923 C658.43344047 219.55837263 658.43344047 219.55837263 659.94539313 219.55868217 C675.84650591 219.56222665 691.74759351 219.57613904 707.64869602 219.5939336 C723.63654425 219.6116038 739.62436754 219.61833931 755.61222519 219.61394163 C765.10966988 219.61166076 774.60702322 219.61773543 784.10445141 219.63583013 C790.45304508 219.64709861 796.80157908 219.64741525 803.1501769 219.63893294 C806.76477478 219.63441389 810.37920016 219.63455567 813.99377938 219.64808705 C817.89618088 219.66258427 821.7983372 219.65362316 825.70075417 219.64258099 C826.81108297 219.65046203 827.92141176 219.65834307 829.06538689 219.66646293 C842.1890472 219.582705 855.56729658 217.36800346 865.68359375 208.421875 C873.1804964 200.4484743 875.05461802 193.24605925 874.828125 182.41015625 C874.69965005 179.39662547 874.69965005 179.39662547 873.98046875 177.0546875 C873.58984375 175.2734375 873.58984375 175.2734375 875.02734375 172.0859375 C878.33843433 163.9001858 877.80107778 152.70768384 875.02734375 144.3984375 C869.0260952 130.57038577 860.69806968 121.37459337 846.765625 115.4609375 C833.6679412 110.5634026 817.75356742 110.41966851 804.58984375 115.2734375 C801.91109265 116.55522547 799.31474896 117.89299248 796.74609375 119.3828125 C794.11511451 120.46952132 793.20782411 120.30738694 790.58984375 119.2734375 C789.03334463 118.48972654 787.49253218 117.67442447 785.96484375 116.8359375 C773.83044744 110.75115326 758.24867152 110.14458282 745.33984375 114.2109375 C744.3653125 114.57058594 743.39078125 114.93023437 742.38671875 115.30078125 C735.0338287 117.85786173 735.0338287 117.85786173 731.5769043 116.45874023 C730.84769775 116.09852783 730.11849121 115.73831543 729.3671875 115.3671875 C724.23968087 112.87696029 719.78791348 112.65865594 714.15234375 112.7734375 C712.76909912 112.78503906 712.76909912 112.78503906 711.35791016 112.796875 C705.49879596 112.9463369 700.59071542 113.62462607 695.33203125 116.3984375 C693.58984375 117.2734375 693.58984375 117.2734375 690.58984375 117.2734375 C689.1951505 116.6713109 687.82163523 116.01919629 686.46484375 115.3359375 C681.77508181 113.1952881 677.71027918 112.47555995 672.58984375 112.2734375 C671.29046875 112.19609375 671.29046875 112.19609375 669.96484375 112.1171875 C661.79647141 111.83872026 654.45688743 113.30476072 647.15234375 117.0234375 C644.11697529 118.50410504 643.68528377 118.30342462 640.58984375 117.2734375 C637.59216954 116.03762752 634.62804165 114.73525345 631.66015625 113.4296875 C618.58766059 108.50671203 601.27158036 109.91222796 588.58984375 115.2734375 C587.92984375 115.6034375 587.26984375 115.9334375 586.58984375 116.2734375 C586.65171875 114.9946875 586.71359375 113.7159375 586.77734375 112.3984375 C586.68769688 102.85104546 583.83438573 96.32359828 577.203125 89.41015625 C573.0778564 86.03717879 568.70511917 84.55427024 563.58984375 83.2734375 C562.68878906 82.99113281 562.68878906 82.99113281 561.76953125 82.703125 C551.93077232 80.76358471 540.38702946 81.2878825 531.58984375 86.2734375 C528.68866597 88.40451968 526.1118295 90.70981519 523.58984375 93.2734375 C523.02265625 93.83933594 522.45546875 94.40523438 521.87109375 94.98828125 C521.44828125 95.41238281 521.02546875 95.83648437 520.58984375 96.2734375 C520.16574219 95.74234375 519.74164062 95.21125 519.3046875 94.6640625 C512.74509615 86.76371951 506.85861138 83.34609858 496.58984375 82.2734375 C483.91995638 81.34582646 472.55844403 82.12501037 462.3125 90.51953125 C456.33199564 96.60852548 454.94115259 102.95912837 454.58984375 111.2734375 C448.64984375 111.2734375 442.70984375 111.2734375 436.58984375 111.2734375 C436.58984375 109.2934375 436.58984375 107.3134375 436.58984375 105.2734375 C433.76622102 98.36430755 428.69978408 93.85667985 422.15234375 90.5234375 C411.2977311 86.71480148 399.29634133 87.24542294 388.58984375 91.2734375 C380.49545457 95.47629342 376.01318005 102.060656 372.58984375 110.2734375 C365.01000596 110.52723827 357.43126424 110.70220323 349.84814453 110.82275391 C347.26960308 110.87300839 344.69134611 110.9412265 342.11376953 111.02783203 C338.40456065 111.14932828 334.69911826 111.20588056 330.98828125 111.25 C329.83806488 111.30161285 328.68784851 111.35322571 327.5027771 111.40640259 C324.24112098 111.40868225 321.68477245 111.31209462 318.58984375 110.2734375 C315.79807141 107.25040214 314.29969227 103.97739545 312.58984375 100.2734375 C305.51676449 90.54238258 291.47436091 84.70399052 279.94140625 82.67578125 C255.64010996 79.9842958 232.21812998 81.87686325 212.27734375 97.0859375 C203.90153707 104.21018686 193.33063269 113.93852769 191.58984375 125.2734375 C190.92984375 124.9434375 190.26984375 124.6134375 189.58984375 124.2734375 C187.26568079 124.18756941 184.93901068 124.16632707 182.61328125 124.17578125 C181.92803375 124.1771962 181.24278625 124.17861115 180.53677368 124.18006897 C178.34608614 124.18567075 176.15550045 124.19822344 173.96484375 124.2109375 C172.48047023 124.21595228 170.9960951 124.22051522 169.51171875 124.22460938 C165.8710606 124.23564073 162.23046211 124.25290651 158.58984375 124.2734375 C158.6055542 123.70012695 158.62126465 123.12681641 158.63745117 122.53613281 C159.04013073 105.59300811 158.598395 88.54318965 146.27734375 75.3359375 C136.52447018 66.52827635 125.52132746 64.65576856 112.84375 64.96484375 C102.13407006 65.53802449 93.48163438 70.66088881 84.58984375 76.2734375 C84.7499292 75.57017334 84.91001465 74.86690918 85.07495117 74.14233398 C87.57753361 60.19835758 87.16539651 43.38699087 81.58984375 30.2734375 C81.23921875 29.38269531 80.88859375 28.49195313 80.52734375 27.57421875 C76.15125459 17.65204438 68.71170712 9.37554358 58.58984375 5.2734375 C47.62015824 1.20323745 36.47066715 0.6800883 25.58984375 5.2734375 C15.61133475 9.94652595 8.23044208 17.26487434 3.58984375 27.2734375 C3.04457031 26.48839844 2.49929688 25.70335937 1.9375 24.89453125 C-6.19719656 13.56157792 -14.95764423 6.06543189 -28.92578125 2.66015625 C-44.40278147 0.25100056 -57.47979562 4.74622364 -68.09765625 16.0234375 Z " fill="#FBDCC7" transform="translate(407.41015625,329.7265625)"/>
<path d="M0 0 C9.18672411 5.37867879 13.65540647 13.47066607 18.32128906 22.67382812 C21.54124229 28.97991835 25.27656591 34.50869006 29.6875 40.0625 C30.53828125 41.24972656 30.53828125 41.24972656 31.40625 42.4609375 C34.51291643 46.00381395 38.10276245 48.63680006 41.875 51.4375 C42.63731934 52.01330811 43.39963867 52.58911621 44.18505859 53.18237305 C47.29729803 55.53299402 50.42162327 57.86607678 53.55859375 60.18359375 C60.59595675 65.46466512 67.21980114 71.35297463 69.6875 80.0625 C70.29640978 85.7025268 70.49283345 90.39217876 68 95.5625 C64.4307784 99.42111795 61.18608535 102.82518525 55.80859375 103.3359375 C45.27969886 103.62623577 36.59716429 101.45799019 26.6875 98.0625 C24.65882463 97.37988334 22.6294385 96.69944132 20.59960938 96.02026367 C18.81240967 95.41715223 17.03095471 94.79709159 15.25 94.17578125 C-4.85943701 87.89158218 -26.26893131 89.7482496 -45.7578125 97.109375 C-63.6636732 103.80844161 -63.6636732 103.80844161 -73.3125 103.8125 C-74.02325684 103.81540039 -74.73401367 103.81830078 -75.46630859 103.82128906 C-81.85486874 103.54826056 -86.35930584 101.1698937 -90.6875 96.5 C-94.10335542 91.37621687 -93.97081647 86.01869665 -93.3125 80.0625 C-89.43092209 66.91266463 -77.4646618 59.29631108 -66.86328125 51.81591797 C-55.9011925 44.02500489 -48.29274035 35.13133877 -41.6796875 23.44921875 C-41.20708496 22.61632324 -40.73448242 21.78342773 -40.24755859 20.92529297 C-39.31375075 19.26579028 -38.39153182 17.59969504 -37.48291016 15.92626953 C-33.47264484 8.74557731 -28.37230455 2.15892451 -20.671875 -1.2734375 C-13.74661148 -3.22260107 -6.57968786 -2.91979985 0 0 Z " fill="#200D5C" transform="translate(423.3125,465.9375)"/>
<path d="M0 0 C9.63890623 7.70776648 15.18632478 16.14466943 21.11230469 26.79101562 C22.68156606 29.57147009 24.35079858 32.2808006 26.0546875 34.98046875 C26.55613281 35.77839844 27.05757812 36.57632813 27.57421875 37.3984375 C31.60886087 43.1905584 35.68535822 47.15284821 41.4296875 51.16796875 C42.76915292 52.13152967 44.10769297 53.09637825 45.4453125 54.0625 C46.41887695 54.76173584 46.41887695 54.76173584 47.41210938 55.47509766 C59.91851358 64.48117689 70.06545931 74.91172334 73.8828125 90.390625 C75.37240778 100.34824564 73.23624714 108.23257227 68.4921875 117.04296875 C62.24780284 124.67499444 55.29738105 129.97017856 45.21533203 131 C29.83179667 131.96125639 16.25828564 128.38598629 1.87573242 123.30639648 C-18.26297142 116.2741081 -35.90405589 117.79212627 -55.7578125 124.79296875 C-57.91653103 125.52065825 -60.07827929 126.23855356 -62.2409668 126.9543457 C-64.06204727 127.56106921 -65.87700798 128.18607646 -67.69140625 128.8125 C-78.5145302 132.27314218 -94.43883336 133.3134287 -104.76171875 128.05078125 C-105.42042969 127.63570312 -106.07914062 127.220625 -106.7578125 126.79296875 C-107.82322266 126.13941406 -107.82322266 126.13941406 -108.91015625 125.47265625 C-115.50857018 120.97541324 -122.07703704 113.80466509 -123.7578125 105.79296875 C-125.1085137 89.35943752 -120.87076462 77.86457267 -110.25292969 65.34179688 C-107.33578617 62.31985721 -103.94080939 59.90676211 -100.5703125 57.41796875 C-99.04532784 56.26594935 -97.520587 55.11360711 -95.99609375 53.9609375 C-93.58827234 52.15467359 -91.17148011 50.36592459 -88.73828125 48.59375 C-79.12582489 41.37305444 -73.34847429 32.08996043 -67.7578125 21.66796875 C-60.38155955 7.94318471 -50.87961397 -2.39667026 -35.7578125 -7.20703125 C-22.77624226 -10.35280756 -10.75697921 -7.75191562 0 0 Z M-46.7265625 20.9453125 C-49.64144309 25.03175086 -52.00547802 29.36685756 -54.40234375 33.77099609 C-61.75707453 47.23255445 -70.98104574 57.34699871 -83.51611328 66.05834961 C-92.97207822 72.66624049 -102.98419555 80.4721179 -106.7578125 91.79296875 C-107.66013585 98.90663422 -107.09835329 104.044685 -102.7578125 109.79296875 C-96.84885532 115.26956321 -90.56863519 115.73332616 -82.828125 115.5546875 C-70.61685756 114.56143664 -58.58983389 109.11927061 -47.18261719 104.91625977 C-29.72282088 99.18967559 -8.79448552 101.8609586 8.2421875 107.79296875 C9.02400391 108.06012695 9.80582031 108.32728516 10.61132812 108.60253906 C14.32555703 109.87845388 18.0216114 111.19133036 21.703125 112.55859375 C27.14428282 114.45639273 31.91213038 114.99511267 37.6796875 115.10546875 C39.59587891 115.16154297 39.59587891 115.16154297 41.55078125 115.21875 C46.99876151 114.59035863 49.99306422 112.21089247 53.5546875 108.16796875 C57.21304721 103.01916619 56.77115276 97.95385821 56.2421875 91.79296875 C53.04923219 79.53892406 40.7300498 71.68482197 30.90527344 64.93945312 C18.23373611 56.20405393 11.05558084 45.53753671 3.83422852 32.24365234 C-1.59904753 22.30506863 -7.51315587 13.54118763 -18.7578125 9.79296875 C-31.18559016 8.58805956 -38.70501229 11.41176373 -46.7265625 20.9453125 Z " fill="#FBE2D0" transform="translate(436.7578125,454.20703125)"/>
<path d="M0 0 C1.28293945 -0.04350586 1.28293945 -0.04350586 2.59179688 -0.08789062 C6.76934846 -0.12995737 9.08160187 -0.05228334 12.73046875 2.14453125 C16.16860917 5.95324968 15.82189893 9.7534101 15.78515625 14.60546875 C15.78265869 15.89735107 15.78016113 17.1892334 15.77758789 18.52026367 C15.76848389 20.16357666 15.75937988 21.80688965 15.75 23.5 C15.729375 28.718125 15.70875 33.93625 15.6875 39.3125 C26.5775 39.3125 37.4675 39.3125 48.6875 39.3125 C48.56914407 29.38036476 48.56914407 29.38036476 48.41723633 19.44873047 C48.40974365 18.20494629 48.40225098 16.96116211 48.39453125 15.6796875 C48.3788208 14.41237793 48.36311035 13.14506836 48.34692383 11.83935547 C48.72124513 7.96305043 49.62835374 5.59954436 51.6875 2.3125 C55.73448797 -0.38549198 58.81451565 -0.01887116 63.5625 0 C64.76712891 -0.02416992 64.76712891 -0.02416992 65.99609375 -0.04882812 C70.68296817 -0.05268881 73.95318564 0.16744057 77.6875 3.3125 C80.33459769 7.08950388 79.97602029 11.24608375 79.9621582 15.67358398 C79.96726913 16.51469727 79.97238007 17.35581055 79.97764587 18.22241211 C79.99153932 21.00121182 79.99058532 23.77976345 79.98828125 26.55859375 C79.99216826 28.4914611 79.99650294 30.4243276 80.00126648 32.35719299 C80.00872812 36.40816009 80.00843777 40.45904003 80.00317383 44.51000977 C79.99737872 49.69978429 80.01431151 54.88920198 80.0375185 60.0789175 C80.05225412 64.07064396 80.05312778 68.06228444 80.05000877 72.05403328 C80.05052205 73.96738454 80.05576104 75.8807406 80.06582069 77.79406548 C80.07816465 80.47028635 80.0714058 83.14581164 80.05981445 85.82202148 C80.06745819 86.61127518 80.07510193 87.40052887 80.08297729 88.21369934 C80.03943105 92.76507947 79.49937851 95.69086167 76.6875 99.3125 C72.67401832 102.53598177 69.31597 102.74489832 64.25 102.75 C62.97253906 102.76933594 61.69507813 102.78867187 60.37890625 102.80859375 C56.0927753 102.23257403 53.98339856 101.07445328 50.6875 98.3125 C48.18922667 94.68061863 48.45798334 91.23159896 48.4921875 86.921875 C48.49718262 85.63249023 48.50217773 84.34310547 48.50732422 83.01464844 C48.52553223 81.38043945 48.54374023 79.74623047 48.5625 78.0625 C48.60375 72.865 48.645 67.6675 48.6875 62.3125 C37.7975 62.3125 26.9075 62.3125 15.6875 62.3125 C15.80596007 72.61877 15.80596007 72.61877 15.95776367 82.92456055 C15.96900269 84.85489136 15.96900269 84.85489136 15.98046875 86.82421875 C15.9961792 88.13865967 16.01188965 89.45310059 16.02807617 90.80737305 C15.66617859 94.53193481 14.92290469 96.35575803 12.6875 99.3125 C8.67401832 102.53598177 5.31597 102.74489832 0.25 102.75 C-1.02746094 102.76933594 -2.30492187 102.78867187 -3.62109375 102.80859375 C-7.93164695 102.22929189 -10.03104831 101.13967119 -13.3125 98.3125 C-15.64763326 93.99900806 -15.60861407 89.73338216 -15.60302734 84.94555664 C-15.60974457 84.1156572 -15.61646179 83.28575775 -15.62338257 82.43070984 C-15.64233902 79.69463064 -15.64628534 76.95879698 -15.6484375 74.22265625 C-15.65486625 72.31603393 -15.66159467 70.40941261 -15.66860962 68.50279236 C-15.68057591 64.50908114 -15.68429103 60.51545639 -15.68310547 56.52172852 C-15.68290213 51.40934026 -15.71022241 46.29750697 -15.74464989 41.18525028 C-15.76690648 37.24838218 -15.77094342 33.31164801 -15.76988602 29.37472343 C-15.77224314 27.49009727 -15.78107297 25.60546748 -15.79655075 23.7209034 C-15.81618898 21.08315436 -15.8103819 18.44660707 -15.79833984 15.80883789 C-15.80957886 15.03410126 -15.82081787 14.25936462 -15.83239746 13.46115112 C-15.77234588 8.27389844 -14.61096775 5.29887539 -11.3125 1.3125 C-7.81206737 -0.43771631 -3.85684036 0.04301309 0 0 Z " fill="#FAE6D9" transform="translate(895.3125,430.6875)"/>
<path d="M0 0 C3.20863454 2.62464993 5.66874015 4.95723094 6.3515625 9.16796875 C6.08063339 15.22219228 3.28993315 19.8167816 -1 24 C-7.72545502 26.24181834 -12.36371009 25.00314871 -18.8125 22.5 C-26.93903608 19.45254897 -33.70409135 18.37125524 -41.875 21.75 C-49.35687659 25.61075483 -53.20163936 29.99645826 -56 38 C-57.21268204 45.42342744 -55.66398687 52.55122985 -51.81640625 58.9765625 C-47.94125873 64.13610735 -43.23108412 66.57239313 -37 68 C-28.16132165 69.09707249 -21.69658081 67.8604432 -13.6875 64.1328125 C-9.67620399 62.44200459 -7.30159009 62.25834654 -3 63 C0.80972649 65.15997886 3.34000486 67.95050512 5 72 C5.83440298 76.34184915 5.90116571 80.27823638 3.8203125 84.25390625 C-0.67860759 89.92598971 -6.28021654 92.62548424 -13 95 C-13.68449219 95.24621094 -14.36898437 95.49242187 -15.07421875 95.74609375 C-30.93803029 100.26525421 -47.56539887 96.54123839 -61.69921875 88.9453125 C-73.52762397 81.97425238 -81.38313397 71.39983736 -85.11328125 58.1953125 C-88.44400168 44.19760075 -86.54635701 30.33234853 -79.203125 17.9765625 C-70.28232408 4.95219316 -58.25313726 -3.30112279 -42.875 -6.9375 C-28.79149963 -9.45968416 -11.81782124 -9.04149317 0 0 Z " fill="#FCE9DA" transform="translate(699,438)"/>
</svg>